<?xml version="1.0" encoding="UTF-8"?>
<svg width="125px" height="18px" viewBox="0 0 125 18" version="1.1" xmlns="http://www.w3.org/2000/svg" xmlns:xlink="http://www.w3.org/1999/xlink">
    <!-- Generator: Sketch 51.3 (57544) - http://www.bohemiancoding.com/sketch -->
    <title>moka-logo</title>
    <desc>Created with Sketch.</desc>
    <defs></defs>
    <g id="M-control" stroke="none" stroke-width="1" fill="none" fill-rule="evenodd">
        <g id="M-职位详情效果" transform="translate(-125.000000, -917.000000)">
            <g id="moka-logo" transform="translate(125.000000, 917.000000)">
                <g id="Page-1-Copy" transform="translate(74.000000, 0.000000)" fill="#9A9FAC" fill-opacity="0.5">
                    <g id="Group-3">
                        <polygon id="Fill-3" points="6.81316364 13.3957129 4.27961818 7.48082757 3.77015354 16.5485408 0.620991919 16.5485408 1.43419394 1.30500539 4.7728 1.30500539 8.09606263 9.11184141 11.4193253 1.30500539 14.7557394 1.30500539 15.5692545 16.5485408 12.4222848 16.5485408 11.9128202 7.48082757 9.37927475 13.3957129"></polygon>
                        <path d="M22.4693535,13.8303854 C23.1128384,13.8303854 23.6169798,13.6129381 23.9814646,13.1780434 C24.3462626,12.7431487 24.5285051,11.9749405 24.5285051,10.872784 C24.5285051,9.77157984 24.3462626,8.99956239 23.9814646,8.55736654 C23.6169798,8.11517069 23.1128384,7.89391404 22.4693535,7.89391404 C21.8399596,7.89391404 21.3358182,8.1221544 20.9569293,8.57863511 C20.5777273,9.03575071 20.388596,9.80046701 20.388596,10.872784 C20.388596,11.9749405 20.5742828,12.7431487 20.9462828,13.1780434 C21.3179697,13.6129381 21.8258687,13.8303854 22.4693535,13.8303854 M22.4693535,5.0670985 C23.2127273,5.0670985 23.9066263,5.17248904 24.5501111,5.38231779 C25.193596,5.59246399 25.7475253,5.92958674 26.2125253,6.39336861 C26.676899,6.85778536 27.0413838,7.45901934 27.3062929,8.19834033 C27.5708889,8.93766132 27.7033434,9.82935417 27.7033434,10.872784 C27.7033434,11.9168487 27.5708889,12.8085416 27.3062929,13.5475451 C27.0413838,14.2871836 26.676899,14.888735 26.2125253,15.3528343 C25.7475253,15.8169336 25.193596,16.1537389 24.5501111,16.3638851 C23.9066263,16.5737139 23.2127273,16.6791044 22.4693535,16.6791044 C21.7109495,16.6791044 21.0142323,16.5737139 20.3779495,16.3638851 C19.7413535,16.1537389 19.1908687,15.8169336 18.7261818,15.3528343 C18.2611818,14.888735 17.896697,14.2871836 17.632101,13.5475451 C17.3671919,12.8085416 17.2353636,11.9168487 17.2353636,10.872784 C17.2353636,9.84395648 17.3671919,8.96305663 17.632101,8.23103679 C17.896697,7.49901696 18.2611818,6.89746553 18.7261818,6.42606507 C19.1908687,5.9552995 19.7413535,5.61087559 20.3779495,5.3931108 C21.0142323,5.17566345 21.7109495,5.0670985 22.4693535,5.0670985" id="Fill-5"></path>
                        <polygon id="Fill-7" points="29.7011212 16.5484773 32.9401515 16.5484773 32.9401515 0.965279623 29.7011212 0.965279623"></polygon>
                        <polygon id="Fill-9" points="32.9183889 10.6775258 36.6909949 5.19721772 40.3590152 5.19721772 36.4793182 10.5251539 40.7883182 16.5486043 37.1412778 16.5486043"></polygon>
                        <path d="M47.5448465,11.5690917 C47.4017455,11.5398871 47.2514424,11.5221104 47.0945636,11.5148092 C46.9367455,11.5075081 46.8011596,11.5036988 46.6865535,11.5036988 C46.0859677,11.5036988 45.5999879,11.5982963 45.228301,11.786539 C44.8559879,11.9747818 44.670301,12.3011115 44.670301,12.7648934 C44.670301,13.0550348 44.7382505,13.2835926 44.8744626,13.4499319 C45.0097354,13.6165886 45.1778869,13.7400733 45.3782909,13.8194337 C45.5783818,13.8994289 45.7891192,13.9464102 46.0111293,13.9606951 C46.2328263,13.9752974 46.4219576,13.9825986 46.5797758,13.9825986 C46.8653515,13.9825986 47.1872505,13.9464102 47.5448465,13.8737162 L47.5448465,11.5690917 Z M46.4294727,9.17717085 C46.5437657,9.17717085 46.6975131,9.1806627 46.8907152,9.18764641 C47.083604,9.19526501 47.3012303,9.20637545 47.5448465,9.22066032 C47.5304424,8.65497977 47.3901596,8.250242 46.9483313,8.02612838 C46.5785232,7.83883796 46.0859677,7.75725552 45.4853818,7.75725552 C45.1565939,7.75725552 44.7777051,7.79725314 44.3487152,7.87693093 C43.9197253,7.95660872 43.4547253,8.07628412 42.9543414,8.23563969 L42.6114626,7.03983799 C42.5682505,6.88016497 42.5071899,6.64811532 42.4289071,6.34400647 C42.349998,6.03926274 42.2964525,5.80022938 42.2679576,5.6262715 C42.9828364,5.37961954 43.6588869,5.20216981 44.2951697,5.09328741 C44.9314525,4.98472246 45.5069879,4.93043998 46.0217758,4.93043998 C47.5373313,4.93043998 48.7100081,5.29676734 49.5398061,6.02846973 C50.3689778,6.76080701 50.7838768,8.04612719 50.7838768,9.65523757 L50.7838768,16.0266036 C50.2261899,16.1865941 49.5827051,16.3421404 48.8534222,16.4941948 C48.1238263,16.6465667 47.3372404,16.7227526 46.4939778,16.7227526 C45.7499778,16.7227526 45.0742404,16.6573597 44.4664525,16.5268913 C43.8586646,16.3964229 43.3369879,16.1789755 42.900796,15.8745492 C42.4642909,15.5701229 42.1286141,15.171734 41.8925131,14.6784301 C41.6567253,14.185761 41.5386747,13.5842096 41.5386747,12.8737758 C41.5386747,12.1636594 41.6849071,11.5690917 41.9783111,11.0907075 C42.271402,10.6120059 42.6502909,10.2313937 43.1152909,9.94887086 C43.5799778,9.66603058 44.1019677,9.46699483 44.6812606,9.35081128 C45.2602404,9.23526262 45.8429778,9.17717085 46.4294727,9.17717085 L46.4294727,9.17717085 Z" id="Fill-10"></path>
                    </g>
                </g>
                <text id="Powered-by" font-family="PingFangSC-Medium, PingFang SC" font-size="12" font-weight="400" fill="#C7CBD1">
                    <tspan x="0" y="14">Powered by </tspan>
                </text>
            </g>
        </g>
    </g>
</svg>